<mxfile host="app.diagrams.net" modified="2022-06-13T17:15:57.862Z" agent="5.0 (Windows NT 10.0; Win64; x64) AppleWebKit/537.36 (KHTML, like Gecko) Chrome/102.0.5005.63 Safari/537.36" etag="QCb9v63PtKOhmPNApBJh" version="20.0.1" type="github" pages="2">
  <diagram id="C5RBs43oDa-KdzZeNtuy" name="Page-1">
    <mxGraphModel dx="1929" dy="855" grid="1" gridSize="10" guides="1" tooltips="1" connect="1" arrows="1" fold="1" page="1" pageScale="1" pageWidth="827" pageHeight="1169" math="0" shadow="0">
      <root>
        <mxCell id="WIyWlLk6GJQsqaUBKTNV-0" />
        <mxCell id="WIyWlLk6GJQsqaUBKTNV-1" parent="WIyWlLk6GJQsqaUBKTNV-0" />
        <mxCell id="1sK50lc-n5-U59IMh-OA-5" value="WindchillExtraction" style="swimlane;fontStyle=0;childLayout=stackLayout;horizontal=1;startSize=26;fillColor=none;horizontalStack=0;resizeParent=1;resizeParentMax=0;resizeLast=0;collapsible=1;marginBottom=0;" parent="WIyWlLk6GJQsqaUBKTNV-1" vertex="1">
          <mxGeometry x="-130" y="580" width="300" height="208" as="geometry" />
        </mxCell>
        <mxCell id="1sK50lc-n5-U59IMh-OA-6" value="- seleniumLogin()" style="text;strokeColor=none;fillColor=none;align=left;verticalAlign=top;spacingLeft=4;spacingRight=4;overflow=hidden;rotatable=0;points=[[0,0.5],[1,0.5]];portConstraint=eastwest;" parent="1sK50lc-n5-U59IMh-OA-5" vertex="1">
          <mxGeometry y="26" width="300" height="26" as="geometry" />
        </mxCell>
        <mxCell id="1sK50lc-n5-U59IMh-OA-7" value="- seleniumLocateClassificationExplorer()&#xa;" style="text;strokeColor=none;fillColor=none;align=left;verticalAlign=top;spacingLeft=4;spacingRight=4;overflow=hidden;rotatable=0;points=[[0,0.5],[1,0.5]];portConstraint=eastwest;" parent="1sK50lc-n5-U59IMh-OA-5" vertex="1">
          <mxGeometry y="52" width="300" height="26" as="geometry" />
        </mxCell>
        <mxCell id="1sK50lc-n5-U59IMh-OA-9" value="- seleniumSelectCommodity()&#xa;" style="text;strokeColor=none;fillColor=none;align=left;verticalAlign=top;spacingLeft=4;spacingRight=4;overflow=hidden;rotatable=0;points=[[0,0.5],[1,0.5]];portConstraint=eastwest;" parent="1sK50lc-n5-U59IMh-OA-5" vertex="1">
          <mxGeometry y="78" width="300" height="26" as="geometry" />
        </mxCell>
        <mxCell id="1sK50lc-n5-U59IMh-OA-10" value="- seleniumDownloadCommoditySheet()&#xa;" style="text;strokeColor=none;fillColor=none;align=left;verticalAlign=top;spacingLeft=4;spacingRight=4;overflow=hidden;rotatable=0;points=[[0,0.5],[1,0.5]];portConstraint=eastwest;" parent="1sK50lc-n5-U59IMh-OA-5" vertex="1">
          <mxGeometry y="104" width="300" height="26" as="geometry" />
        </mxCell>
        <mxCell id="1sK50lc-n5-U59IMh-OA-11" value="- seleniumSearchDrawings()&#xa;" style="text;strokeColor=none;fillColor=none;align=left;verticalAlign=top;spacingLeft=4;spacingRight=4;overflow=hidden;rotatable=0;points=[[0,0.5],[1,0.5]];portConstraint=eastwest;" parent="1sK50lc-n5-U59IMh-OA-5" vertex="1">
          <mxGeometry y="130" width="300" height="26" as="geometry" />
        </mxCell>
        <mxCell id="1sK50lc-n5-U59IMh-OA-19" value="- seleniumDownloadDrawings(string: path)&#xa;" style="text;strokeColor=none;fillColor=none;align=left;verticalAlign=top;spacingLeft=4;spacingRight=4;overflow=hidden;rotatable=0;points=[[0,0.5],[1,0.5]];portConstraint=eastwest;" parent="1sK50lc-n5-U59IMh-OA-5" vertex="1">
          <mxGeometry y="156" width="300" height="26" as="geometry" />
        </mxCell>
        <mxCell id="1sK50lc-n5-U59IMh-OA-20" value="- parseDataToDataTable()&#xa;" style="text;strokeColor=none;fillColor=none;align=left;verticalAlign=top;spacingLeft=4;spacingRight=4;overflow=hidden;rotatable=0;points=[[0,0.5],[1,0.5]];portConstraint=eastwest;" parent="1sK50lc-n5-U59IMh-OA-5" vertex="1">
          <mxGeometry y="182" width="300" height="26" as="geometry" />
        </mxCell>
        <mxCell id="1sK50lc-n5-U59IMh-OA-31" value="MachineLearning" style="swimlane;fontStyle=0;childLayout=stackLayout;horizontal=1;startSize=26;fillColor=none;horizontalStack=0;resizeParent=1;resizeParentMax=0;resizeLast=0;collapsible=1;marginBottom=0;" parent="WIyWlLk6GJQsqaUBKTNV-1" vertex="1">
          <mxGeometry x="220" y="80" width="300" height="244" as="geometry" />
        </mxCell>
        <mxCell id="1sK50lc-n5-U59IMh-OA-33" value="- performOneHotEncoding()&#xa;" style="text;strokeColor=none;fillColor=none;align=left;verticalAlign=top;spacingLeft=4;spacingRight=4;overflow=hidden;rotatable=0;points=[[0,0.5],[1,0.5]];portConstraint=eastwest;" parent="1sK50lc-n5-U59IMh-OA-31" vertex="1">
          <mxGeometry y="26" width="300" height="26" as="geometry" />
        </mxCell>
        <mxCell id="1sK50lc-n5-U59IMh-OA-34" value="- runKMeans()&#xa;" style="text;strokeColor=none;fillColor=none;align=left;verticalAlign=top;spacingLeft=4;spacingRight=4;overflow=hidden;rotatable=0;points=[[0,0.5],[1,0.5]];portConstraint=eastwest;" parent="1sK50lc-n5-U59IMh-OA-31" vertex="1">
          <mxGeometry y="52" width="300" height="26" as="geometry" />
        </mxCell>
        <mxCell id="1sK50lc-n5-U59IMh-OA-35" value="- identifyOutliers()&#xa;" style="text;strokeColor=none;fillColor=none;align=left;verticalAlign=top;spacingLeft=4;spacingRight=4;overflow=hidden;rotatable=0;points=[[0,0.5],[1,0.5]];portConstraint=eastwest;" parent="1sK50lc-n5-U59IMh-OA-31" vertex="1">
          <mxGeometry y="78" width="300" height="26" as="geometry" />
        </mxCell>
        <mxCell id="1sK50lc-n5-U59IMh-OA-36" value="- runRandomForest()&#xa;" style="text;strokeColor=none;fillColor=none;align=left;verticalAlign=top;spacingLeft=4;spacingRight=4;overflow=hidden;rotatable=0;points=[[0,0.5],[1,0.5]];portConstraint=eastwest;" parent="1sK50lc-n5-U59IMh-OA-31" vertex="1">
          <mxGeometry y="104" width="300" height="26" as="geometry" />
        </mxCell>
        <mxCell id="1sK50lc-n5-U59IMh-OA-37" value="- evaluateSignificantFeatures()&#xa;" style="text;strokeColor=none;fillColor=none;align=left;verticalAlign=top;spacingLeft=4;spacingRight=4;overflow=hidden;rotatable=0;points=[[0,0.5],[1,0.5]];portConstraint=eastwest;" parent="1sK50lc-n5-U59IMh-OA-31" vertex="1">
          <mxGeometry y="130" width="300" height="26" as="geometry" />
        </mxCell>
        <mxCell id="1sK50lc-n5-U59IMh-OA-38" value="- splitTrainAndTestData()&#xa;" style="text;strokeColor=none;fillColor=none;align=left;verticalAlign=top;spacingLeft=4;spacingRight=4;overflow=hidden;rotatable=0;points=[[0,0.5],[1,0.5]];portConstraint=eastwest;" parent="1sK50lc-n5-U59IMh-OA-31" vertex="1">
          <mxGeometry y="156" width="300" height="26" as="geometry" />
        </mxCell>
        <mxCell id="1sK50lc-n5-U59IMh-OA-39" value="- trainPricePrediction()&#xa;" style="text;strokeColor=none;fillColor=none;align=left;verticalAlign=top;spacingLeft=4;spacingRight=4;overflow=hidden;rotatable=0;points=[[0,0.5],[1,0.5]];portConstraint=eastwest;" parent="1sK50lc-n5-U59IMh-OA-31" vertex="1">
          <mxGeometry y="182" width="300" height="26" as="geometry" />
        </mxCell>
        <mxCell id="1sK50lc-n5-U59IMh-OA-40" value="- testPricePrediction()" style="text;strokeColor=none;fillColor=none;align=left;verticalAlign=top;spacingLeft=4;spacingRight=4;overflow=hidden;rotatable=0;points=[[0,0.5],[1,0.5]];portConstraint=eastwest;" parent="1sK50lc-n5-U59IMh-OA-31" vertex="1">
          <mxGeometry y="208" width="300" height="36" as="geometry" />
        </mxCell>
        <mxCell id="1sK50lc-n5-U59IMh-OA-41" value="DrawingParser" style="swimlane;fontStyle=0;childLayout=stackLayout;horizontal=1;startSize=26;fillColor=none;horizontalStack=0;resizeParent=1;resizeParentMax=0;resizeLast=0;collapsible=1;marginBottom=0;" parent="WIyWlLk6GJQsqaUBKTNV-1" vertex="1">
          <mxGeometry x="-140" y="1088" width="300" height="130" as="geometry" />
        </mxCell>
        <mxCell id="1sK50lc-n5-U59IMh-OA-42" value="- convertDrawingsToImages(string: filePath)" style="text;strokeColor=none;fillColor=none;align=left;verticalAlign=top;spacingLeft=4;spacingRight=4;overflow=hidden;rotatable=0;points=[[0,0.5],[1,0.5]];portConstraint=eastwest;" parent="1sK50lc-n5-U59IMh-OA-41" vertex="1">
          <mxGeometry y="26" width="300" height="26" as="geometry" />
        </mxCell>
        <mxCell id="1sK50lc-n5-U59IMh-OA-44" value="- preprocessDrawings()" style="text;strokeColor=none;fillColor=none;align=left;verticalAlign=top;spacingLeft=4;spacingRight=4;overflow=hidden;rotatable=0;points=[[0,0.5],[1,0.5]];portConstraint=eastwest;" parent="1sK50lc-n5-U59IMh-OA-41" vertex="1">
          <mxGeometry y="52" width="300" height="26" as="geometry" />
        </mxCell>
        <mxCell id="1sK50lc-n5-U59IMh-OA-45" value="- parseDrawings()" style="text;strokeColor=none;fillColor=none;align=left;verticalAlign=top;spacingLeft=4;spacingRight=4;overflow=hidden;rotatable=0;points=[[0,0.5],[1,0.5]];portConstraint=eastwest;" parent="1sK50lc-n5-U59IMh-OA-41" vertex="1">
          <mxGeometry y="78" width="300" height="26" as="geometry" />
        </mxCell>
        <mxCell id="1sK50lc-n5-U59IMh-OA-46" value="- populateDataTables()" style="text;strokeColor=none;fillColor=none;align=left;verticalAlign=top;spacingLeft=4;spacingRight=4;overflow=hidden;rotatable=0;points=[[0,0.5],[1,0.5]];portConstraint=eastwest;" parent="1sK50lc-n5-U59IMh-OA-41" vertex="1">
          <mxGeometry y="104" width="300" height="26" as="geometry" />
        </mxCell>
        <mxCell id="1sK50lc-n5-U59IMh-OA-51" value="Maintainability" style="swimlane;fontStyle=0;childLayout=stackLayout;horizontal=1;startSize=26;fillColor=none;horizontalStack=0;resizeParent=1;resizeParentMax=0;resizeLast=0;collapsible=1;marginBottom=0;" parent="WIyWlLk6GJQsqaUBKTNV-1" vertex="1">
          <mxGeometry x="-140" y="845" width="300" height="182" as="geometry" />
        </mxCell>
        <mxCell id="1sK50lc-n5-U59IMh-OA-52" value="- prepareGitCommit()" style="text;strokeColor=none;fillColor=none;align=left;verticalAlign=top;spacingLeft=4;spacingRight=4;overflow=hidden;rotatable=0;points=[[0,0.5],[1,0.5]];portConstraint=eastwest;" parent="1sK50lc-n5-U59IMh-OA-51" vertex="1">
          <mxGeometry y="26" width="300" height="26" as="geometry" />
        </mxCell>
        <mxCell id="1sK50lc-n5-U59IMh-OA-53" value="- prepareGitAdd()" style="text;strokeColor=none;fillColor=none;align=left;verticalAlign=top;spacingLeft=4;spacingRight=4;overflow=hidden;rotatable=0;points=[[0,0.5],[1,0.5]];portConstraint=eastwest;" parent="1sK50lc-n5-U59IMh-OA-51" vertex="1">
          <mxGeometry y="52" width="300" height="26" as="geometry" />
        </mxCell>
        <mxCell id="1sK50lc-n5-U59IMh-OA-54" value="- triggerGitPush()&#xa;" style="text;strokeColor=none;fillColor=none;align=left;verticalAlign=top;spacingLeft=4;spacingRight=4;overflow=hidden;rotatable=0;points=[[0,0.5],[1,0.5]];portConstraint=eastwest;" parent="1sK50lc-n5-U59IMh-OA-51" vertex="1">
          <mxGeometry y="78" width="300" height="26" as="geometry" />
        </mxCell>
        <mxCell id="1sK50lc-n5-U59IMh-OA-55" value="- triggerJenkinsBuild()" style="text;strokeColor=none;fillColor=none;align=left;verticalAlign=top;spacingLeft=4;spacingRight=4;overflow=hidden;rotatable=0;points=[[0,0.5],[1,0.5]];portConstraint=eastwest;" parent="1sK50lc-n5-U59IMh-OA-51" vertex="1">
          <mxGeometry y="104" width="300" height="26" as="geometry" />
        </mxCell>
        <mxCell id="1sK50lc-n5-U59IMh-OA-56" value="- performCodeAnalysis()" style="text;strokeColor=none;fillColor=none;align=left;verticalAlign=top;spacingLeft=4;spacingRight=4;overflow=hidden;rotatable=0;points=[[0,0.5],[1,0.5]];portConstraint=eastwest;" parent="1sK50lc-n5-U59IMh-OA-51" vertex="1">
          <mxGeometry y="130" width="300" height="26" as="geometry" />
        </mxCell>
        <mxCell id="1sK50lc-n5-U59IMh-OA-57" value="- runUnitTests()" style="text;strokeColor=none;fillColor=none;align=left;verticalAlign=top;spacingLeft=4;spacingRight=4;overflow=hidden;rotatable=0;points=[[0,0.5],[1,0.5]];portConstraint=eastwest;" parent="1sK50lc-n5-U59IMh-OA-51" vertex="1">
          <mxGeometry y="156" width="300" height="26" as="geometry" />
        </mxCell>
        <mxCell id="1sK50lc-n5-U59IMh-OA-61" value="Commodity" style="swimlane;fontStyle=0;childLayout=stackLayout;horizontal=1;startSize=26;fillColor=none;horizontalStack=0;resizeParent=1;resizeParentMax=0;resizeLast=0;collapsible=1;marginBottom=0;" parent="WIyWlLk6GJQsqaUBKTNV-1" vertex="1">
          <mxGeometry x="1110" y="668" width="300" height="130" as="geometry" />
        </mxCell>
        <mxCell id="1sK50lc-n5-U59IMh-OA-62" value="- price" style="text;strokeColor=none;fillColor=none;align=left;verticalAlign=top;spacingLeft=4;spacingRight=4;overflow=hidden;rotatable=0;points=[[0,0.5],[1,0.5]];portConstraint=eastwest;" parent="1sK50lc-n5-U59IMh-OA-61" vertex="1">
          <mxGeometry y="26" width="300" height="26" as="geometry" />
        </mxCell>
        <mxCell id="1sK50lc-n5-U59IMh-OA-63" value="- partNumber" style="text;strokeColor=none;fillColor=none;align=left;verticalAlign=top;spacingLeft=4;spacingRight=4;overflow=hidden;rotatable=0;points=[[0,0.5],[1,0.5]];portConstraint=eastwest;" parent="1sK50lc-n5-U59IMh-OA-61" vertex="1">
          <mxGeometry y="52" width="300" height="26" as="geometry" />
        </mxCell>
        <mxCell id="1sK50lc-n5-U59IMh-OA-65" value="- name" style="text;strokeColor=none;fillColor=none;align=left;verticalAlign=top;spacingLeft=4;spacingRight=4;overflow=hidden;rotatable=0;points=[[0,0.5],[1,0.5]];portConstraint=eastwest;" parent="1sK50lc-n5-U59IMh-OA-61" vertex="1">
          <mxGeometry y="78" width="300" height="26" as="geometry" />
        </mxCell>
        <mxCell id="1sK50lc-n5-U59IMh-OA-66" value="- cost " style="text;strokeColor=none;fillColor=none;align=left;verticalAlign=top;spacingLeft=4;spacingRight=4;overflow=hidden;rotatable=0;points=[[0,0.5],[1,0.5]];portConstraint=eastwest;" parent="1sK50lc-n5-U59IMh-OA-61" vertex="1">
          <mxGeometry y="104" width="300" height="26" as="geometry" />
        </mxCell>
        <mxCell id="KKLGuPh0WW9fZ8P-ubre-0" value="Busbar" style="swimlane;fontStyle=0;childLayout=stackLayout;horizontal=1;startSize=26;fillColor=none;horizontalStack=0;resizeParent=1;resizeParentMax=0;resizeLast=0;collapsible=1;marginBottom=0;" parent="WIyWlLk6GJQsqaUBKTNV-1" vertex="1">
          <mxGeometry x="550" y="780" width="300" height="78" as="geometry" />
        </mxCell>
        <mxCell id="KKLGuPh0WW9fZ8P-ubre-1" value="- length" style="text;strokeColor=none;fillColor=none;align=left;verticalAlign=top;spacingLeft=4;spacingRight=4;overflow=hidden;rotatable=0;points=[[0,0.5],[1,0.5]];portConstraint=eastwest;" parent="KKLGuPh0WW9fZ8P-ubre-0" vertex="1">
          <mxGeometry y="26" width="300" height="26" as="geometry" />
        </mxCell>
        <mxCell id="KKLGuPh0WW9fZ8P-ubre-2" value="- width" style="text;strokeColor=none;fillColor=none;align=left;verticalAlign=top;spacingLeft=4;spacingRight=4;overflow=hidden;rotatable=0;points=[[0,0.5],[1,0.5]];portConstraint=eastwest;" parent="KKLGuPh0WW9fZ8P-ubre-0" vertex="1">
          <mxGeometry y="52" width="300" height="26" as="geometry" />
        </mxCell>
        <mxCell id="VTsSVl1GEHtE0EmgE6Nk-24" value="Extends" style="endArrow=block;endSize=16;endFill=0;html=1;rounded=0;entryX=-0.013;entryY=0.92;entryDx=0;entryDy=0;entryPerimeter=0;" parent="KKLGuPh0WW9fZ8P-ubre-0" target="KKLGuPh0WW9fZ8P-ubre-1" edge="1">
          <mxGeometry x="0.2914" y="20" width="160" relative="1" as="geometry">
            <mxPoint x="-70" y="128" as="sourcePoint" />
            <mxPoint x="-10" y="50" as="targetPoint" />
            <Array as="points">
              <mxPoint x="-70" y="50" />
            </Array>
            <mxPoint y="-1" as="offset" />
          </mxGeometry>
        </mxCell>
        <mxCell id="KKLGuPh0WW9fZ8P-ubre-5" value="Bearings" style="swimlane;fontStyle=0;childLayout=stackLayout;horizontal=1;startSize=26;fillColor=none;horizontalStack=0;resizeParent=1;resizeParentMax=0;resizeLast=0;collapsible=1;marginBottom=0;" parent="WIyWlLk6GJQsqaUBKTNV-1" vertex="1">
          <mxGeometry x="1110" y="839" width="300" height="104" as="geometry" />
        </mxCell>
        <mxCell id="KKLGuPh0WW9fZ8P-ubre-6" value=" - type " style="text;strokeColor=none;fillColor=none;align=left;verticalAlign=top;spacingLeft=4;spacingRight=4;overflow=hidden;rotatable=0;points=[[0,0.5],[1,0.5]];portConstraint=eastwest;" parent="KKLGuPh0WW9fZ8P-ubre-5" vertex="1">
          <mxGeometry y="26" width="300" height="26" as="geometry" />
        </mxCell>
        <mxCell id="KKLGuPh0WW9fZ8P-ubre-7" value="- weight " style="text;strokeColor=none;fillColor=none;align=left;verticalAlign=top;spacingLeft=4;spacingRight=4;overflow=hidden;rotatable=0;points=[[0,0.5],[1,0.5]];portConstraint=eastwest;" parent="KKLGuPh0WW9fZ8P-ubre-5" vertex="1">
          <mxGeometry y="52" width="300" height="26" as="geometry" />
        </mxCell>
        <mxCell id="KKLGuPh0WW9fZ8P-ubre-8" value="- width" style="text;strokeColor=none;fillColor=none;align=left;verticalAlign=top;spacingLeft=4;spacingRight=4;overflow=hidden;rotatable=0;points=[[0,0.5],[1,0.5]];portConstraint=eastwest;" parent="KKLGuPh0WW9fZ8P-ubre-5" vertex="1">
          <mxGeometry y="78" width="300" height="26" as="geometry" />
        </mxCell>
        <mxCell id="KKLGuPh0WW9fZ8P-ubre-10" value="SingleBusbar" style="swimlane;fontStyle=0;childLayout=stackLayout;horizontal=1;startSize=26;fillColor=none;horizontalStack=0;resizeParent=1;resizeParentMax=0;resizeLast=0;collapsible=1;marginBottom=0;" parent="WIyWlLk6GJQsqaUBKTNV-1" vertex="1">
          <mxGeometry x="360" y="910" width="300" height="52" as="geometry" />
        </mxCell>
        <mxCell id="KKLGuPh0WW9fZ8P-ubre-14" value="- radius" style="text;strokeColor=none;fillColor=none;align=left;verticalAlign=top;spacingLeft=4;spacingRight=4;overflow=hidden;rotatable=0;points=[[0,0.5],[1,0.5]];portConstraint=eastwest;" parent="KKLGuPh0WW9fZ8P-ubre-10" vertex="1">
          <mxGeometry y="26" width="300" height="26" as="geometry" />
        </mxCell>
        <mxCell id="KKLGuPh0WW9fZ8P-ubre-15" value="DoubleBusbar" style="swimlane;fontStyle=0;childLayout=stackLayout;horizontal=1;startSize=26;fillColor=none;horizontalStack=0;resizeParent=1;resizeParentMax=0;resizeLast=0;collapsible=1;marginBottom=0;" parent="WIyWlLk6GJQsqaUBKTNV-1" vertex="1">
          <mxGeometry x="720" y="910" width="300" height="52" as="geometry" />
        </mxCell>
        <mxCell id="KKLGuPh0WW9fZ8P-ubre-19" value="- diameter" style="text;strokeColor=none;fillColor=none;align=left;verticalAlign=top;spacingLeft=4;spacingRight=4;overflow=hidden;rotatable=0;points=[[0,0.5],[1,0.5]];portConstraint=eastwest;" parent="KKLGuPh0WW9fZ8P-ubre-15" vertex="1">
          <mxGeometry y="26" width="300" height="26" as="geometry" />
        </mxCell>
        <mxCell id="KKLGuPh0WW9fZ8P-ubre-20" value="CylindricalBearing" style="swimlane;fontStyle=0;childLayout=stackLayout;horizontal=1;startSize=26;fillColor=none;horizontalStack=0;resizeParent=1;resizeParentMax=0;resizeLast=0;collapsible=1;marginBottom=0;" parent="WIyWlLk6GJQsqaUBKTNV-1" vertex="1">
          <mxGeometry x="1340" y="1020" width="300" height="78" as="geometry" />
        </mxCell>
        <mxCell id="KKLGuPh0WW9fZ8P-ubre-23" value="- diameter" style="text;strokeColor=none;fillColor=none;align=left;verticalAlign=top;spacingLeft=4;spacingRight=4;overflow=hidden;rotatable=0;points=[[0,0.5],[1,0.5]];portConstraint=eastwest;" parent="KKLGuPh0WW9fZ8P-ubre-20" vertex="1">
          <mxGeometry y="26" width="300" height="26" as="geometry" />
        </mxCell>
        <mxCell id="KKLGuPh0WW9fZ8P-ubre-24" value="- volume" style="text;strokeColor=none;fillColor=none;align=left;verticalAlign=top;spacingLeft=4;spacingRight=4;overflow=hidden;rotatable=0;points=[[0,0.5],[1,0.5]];portConstraint=eastwest;" parent="KKLGuPh0WW9fZ8P-ubre-20" vertex="1">
          <mxGeometry y="52" width="300" height="26" as="geometry" />
        </mxCell>
        <mxCell id="KKLGuPh0WW9fZ8P-ubre-25" value="BallBearing" style="swimlane;fontStyle=0;childLayout=stackLayout;horizontal=1;startSize=26;fillColor=none;horizontalStack=0;resizeParent=1;resizeParentMax=0;resizeLast=0;collapsible=1;marginBottom=0;" parent="WIyWlLk6GJQsqaUBKTNV-1" vertex="1">
          <mxGeometry x="961" y="1010" width="300" height="78" as="geometry" />
        </mxCell>
        <mxCell id="KKLGuPh0WW9fZ8P-ubre-26" value="- radialTolerance" style="text;strokeColor=none;fillColor=none;align=left;verticalAlign=top;spacingLeft=4;spacingRight=4;overflow=hidden;rotatable=0;points=[[0,0.5],[1,0.5]];portConstraint=eastwest;" parent="KKLGuPh0WW9fZ8P-ubre-25" vertex="1">
          <mxGeometry y="26" width="300" height="26" as="geometry" />
        </mxCell>
        <mxCell id="KKLGuPh0WW9fZ8P-ubre-27" value="- lubricant" style="text;strokeColor=none;fillColor=none;align=left;verticalAlign=top;spacingLeft=4;spacingRight=4;overflow=hidden;rotatable=0;points=[[0,0.5],[1,0.5]];portConstraint=eastwest;" parent="KKLGuPh0WW9fZ8P-ubre-25" vertex="1">
          <mxGeometry y="52" width="300" height="26" as="geometry" />
        </mxCell>
        <mxCell id="KKLGuPh0WW9fZ8P-ubre-42" value="UI" style="swimlane;fontStyle=0;childLayout=stackLayout;horizontal=1;startSize=26;fillColor=none;horizontalStack=0;resizeParent=1;resizeParentMax=0;resizeLast=0;collapsible=1;marginBottom=0;" parent="WIyWlLk6GJQsqaUBKTNV-1" vertex="1">
          <mxGeometry x="800" y="40" width="300" height="156" as="geometry" />
        </mxCell>
        <mxCell id="KKLGuPh0WW9fZ8P-ubre-53" value="- commodityInputBox" style="text;strokeColor=none;fillColor=none;align=left;verticalAlign=top;spacingLeft=4;spacingRight=4;overflow=hidden;rotatable=0;points=[[0,0.5],[1,0.5]];portConstraint=eastwest;" parent="KKLGuPh0WW9fZ8P-ubre-42" vertex="1">
          <mxGeometry y="26" width="300" height="26" as="geometry" />
        </mxCell>
        <mxCell id="KKLGuPh0WW9fZ8P-ubre-55" value="- main()" style="text;strokeColor=none;fillColor=none;align=left;verticalAlign=top;spacingLeft=4;spacingRight=4;overflow=hidden;rotatable=0;points=[[0,0.5],[1,0.5]];portConstraint=eastwest;" parent="KKLGuPh0WW9fZ8P-ubre-42" vertex="1">
          <mxGeometry y="52" width="300" height="26" as="geometry" />
        </mxCell>
        <mxCell id="KKLGuPh0WW9fZ8P-ubre-54" value="- searchForCommodityWindchill()" style="text;strokeColor=none;fillColor=none;align=left;verticalAlign=top;spacingLeft=4;spacingRight=4;overflow=hidden;rotatable=0;points=[[0,0.5],[1,0.5]];portConstraint=eastwest;" parent="KKLGuPh0WW9fZ8P-ubre-42" vertex="1">
          <mxGeometry y="78" width="300" height="26" as="geometry" />
        </mxCell>
        <mxCell id="KKLGuPh0WW9fZ8P-ubre-52" value="- runMachineLearningMethods()" style="text;strokeColor=none;fillColor=none;align=left;verticalAlign=top;spacingLeft=4;spacingRight=4;overflow=hidden;rotatable=0;points=[[0,0.5],[1,0.5]];portConstraint=eastwest;" parent="KKLGuPh0WW9fZ8P-ubre-42" vertex="1">
          <mxGeometry y="104" width="300" height="26" as="geometry" />
        </mxCell>
        <mxCell id="KKLGuPh0WW9fZ8P-ubre-51" value="- main()" style="text;strokeColor=none;fillColor=none;align=left;verticalAlign=top;spacingLeft=4;spacingRight=4;overflow=hidden;rotatable=0;points=[[0,0.5],[1,0.5]];portConstraint=eastwest;" parent="KKLGuPh0WW9fZ8P-ubre-42" vertex="1">
          <mxGeometry y="130" width="300" height="26" as="geometry" />
        </mxCell>
        <mxCell id="KKLGuPh0WW9fZ8P-ubre-56" value="" style="shape=curlyBracket;whiteSpace=wrap;html=1;rounded=1;flipH=1;size=0;" parent="WIyWlLk6GJQsqaUBKTNV-1" vertex="1">
          <mxGeometry x="1170" y="58" width="20" height="120" as="geometry" />
        </mxCell>
        <mxCell id="KKLGuPh0WW9fZ8P-ubre-57" value="View" style="text;html=1;align=center;verticalAlign=middle;resizable=0;points=[];autosize=1;strokeColor=none;fillColor=none;" parent="WIyWlLk6GJQsqaUBKTNV-1" vertex="1">
          <mxGeometry x="1221" y="108" width="40" height="20" as="geometry" />
        </mxCell>
        <mxCell id="KKLGuPh0WW9fZ8P-ubre-58" value="Controller" style="swimlane;fontStyle=0;childLayout=stackLayout;horizontal=1;startSize=26;fillColor=none;horizontalStack=0;resizeParent=1;resizeParentMax=0;resizeLast=0;collapsible=1;marginBottom=0;" parent="WIyWlLk6GJQsqaUBKTNV-1" vertex="1">
          <mxGeometry x="790" y="290" width="300" height="156" as="geometry" />
        </mxCell>
        <mxCell id="KKLGuPh0WW9fZ8P-ubre-59" value="- commodityInputBox" style="text;strokeColor=none;fillColor=none;align=left;verticalAlign=top;spacingLeft=4;spacingRight=4;overflow=hidden;rotatable=0;points=[[0,0.5],[1,0.5]];portConstraint=eastwest;" parent="KKLGuPh0WW9fZ8P-ubre-58" vertex="1">
          <mxGeometry y="26" width="300" height="26" as="geometry" />
        </mxCell>
        <mxCell id="KKLGuPh0WW9fZ8P-ubre-60" value="- main()" style="text;strokeColor=none;fillColor=none;align=left;verticalAlign=top;spacingLeft=4;spacingRight=4;overflow=hidden;rotatable=0;points=[[0,0.5],[1,0.5]];portConstraint=eastwest;" parent="KKLGuPh0WW9fZ8P-ubre-58" vertex="1">
          <mxGeometry y="52" width="300" height="26" as="geometry" />
        </mxCell>
        <mxCell id="KKLGuPh0WW9fZ8P-ubre-61" value="- searchForCommodityWindchill()" style="text;strokeColor=none;fillColor=none;align=left;verticalAlign=top;spacingLeft=4;spacingRight=4;overflow=hidden;rotatable=0;points=[[0,0.5],[1,0.5]];portConstraint=eastwest;" parent="KKLGuPh0WW9fZ8P-ubre-58" vertex="1">
          <mxGeometry y="78" width="300" height="26" as="geometry" />
        </mxCell>
        <mxCell id="KKLGuPh0WW9fZ8P-ubre-62" value="- runMachineLearningMethods()" style="text;strokeColor=none;fillColor=none;align=left;verticalAlign=top;spacingLeft=4;spacingRight=4;overflow=hidden;rotatable=0;points=[[0,0.5],[1,0.5]];portConstraint=eastwest;" parent="KKLGuPh0WW9fZ8P-ubre-58" vertex="1">
          <mxGeometry y="104" width="300" height="26" as="geometry" />
        </mxCell>
        <mxCell id="KKLGuPh0WW9fZ8P-ubre-63" value="- main()" style="text;strokeColor=none;fillColor=none;align=left;verticalAlign=top;spacingLeft=4;spacingRight=4;overflow=hidden;rotatable=0;points=[[0,0.5],[1,0.5]];portConstraint=eastwest;" parent="KKLGuPh0WW9fZ8P-ubre-58" vertex="1">
          <mxGeometry y="130" width="300" height="26" as="geometry" />
        </mxCell>
        <mxCell id="KKLGuPh0WW9fZ8P-ubre-64" value="" style="shape=curlyBracket;whiteSpace=wrap;html=1;rounded=1;flipH=1;size=0;" parent="WIyWlLk6GJQsqaUBKTNV-1" vertex="1">
          <mxGeometry x="1174.5" y="308" width="20" height="120" as="geometry" />
        </mxCell>
        <mxCell id="KKLGuPh0WW9fZ8P-ubre-65" value="Controller" style="text;html=1;align=center;verticalAlign=middle;resizable=0;points=[];autosize=1;strokeColor=none;fillColor=none;" parent="WIyWlLk6GJQsqaUBKTNV-1" vertex="1">
          <mxGeometry x="1210.5" y="358" width="70" height="20" as="geometry" />
        </mxCell>
        <mxCell id="KKLGuPh0WW9fZ8P-ubre-66" value="" style="shape=curlyBracket;whiteSpace=wrap;html=1;rounded=1;flipH=1;size=0;" parent="WIyWlLk6GJQsqaUBKTNV-1" vertex="1">
          <mxGeometry x="1780" y="503" width="70" height="715" as="geometry" />
        </mxCell>
        <mxCell id="KKLGuPh0WW9fZ8P-ubre-68" value="Model" style="text;html=1;align=center;verticalAlign=middle;resizable=0;points=[];autosize=1;strokeColor=none;fillColor=none;" parent="WIyWlLk6GJQsqaUBKTNV-1" vertex="1">
          <mxGeometry x="1900" y="809" width="50" height="20" as="geometry" />
        </mxCell>
        <mxCell id="VTsSVl1GEHtE0EmgE6Nk-0" value="ComponentFactory" style="swimlane;fontStyle=0;childLayout=stackLayout;horizontal=1;startSize=26;fillColor=none;horizontalStack=0;resizeParent=1;resizeParentMax=0;resizeLast=0;collapsible=1;marginBottom=0;" parent="WIyWlLk6GJQsqaUBKTNV-1" vertex="1">
          <mxGeometry x="620" y="585" width="300" height="52" as="geometry" />
        </mxCell>
        <mxCell id="VTsSVl1GEHtE0EmgE6Nk-1" value="+ createComponent()" style="text;strokeColor=none;fillColor=none;align=left;verticalAlign=top;spacingLeft=4;spacingRight=4;overflow=hidden;rotatable=0;points=[[0,0.5],[1,0.5]];portConstraint=eastwest;" parent="VTsSVl1GEHtE0EmgE6Nk-0" vertex="1">
          <mxGeometry y="26" width="300" height="26" as="geometry" />
        </mxCell>
        <mxCell id="VTsSVl1GEHtE0EmgE6Nk-10" value="BusbarFactory" style="swimlane;fontStyle=0;childLayout=stackLayout;horizontal=1;startSize=26;fillColor=none;horizontalStack=0;resizeParent=1;resizeParentMax=0;resizeLast=0;collapsible=1;marginBottom=0;" parent="WIyWlLk6GJQsqaUBKTNV-1" vertex="1">
          <mxGeometry x="370" y="668" width="300" height="52" as="geometry" />
        </mxCell>
        <mxCell id="VTsSVl1GEHtE0EmgE6Nk-28" value="Use" style="endArrow=open;endSize=12;dashed=1;html=1;rounded=0;entryX=0;entryY=0.5;entryDx=0;entryDy=0;" parent="VTsSVl1GEHtE0EmgE6Nk-10" target="KKLGuPh0WW9fZ8P-ubre-14" edge="1">
          <mxGeometry width="160" relative="1" as="geometry">
            <mxPoint y="22" as="sourcePoint" />
            <mxPoint x="-10" y="268" as="targetPoint" />
            <Array as="points">
              <mxPoint x="-110" y="22" />
              <mxPoint x="-110" y="282" />
              <mxPoint x="-40" y="282" />
            </Array>
          </mxGeometry>
        </mxCell>
        <mxCell id="VTsSVl1GEHtE0EmgE6Nk-11" value="+ createComponent()" style="text;strokeColor=none;fillColor=none;align=left;verticalAlign=top;spacingLeft=4;spacingRight=4;overflow=hidden;rotatable=0;points=[[0,0.5],[1,0.5]];portConstraint=eastwest;" parent="VTsSVl1GEHtE0EmgE6Nk-10" vertex="1">
          <mxGeometry y="26" width="300" height="26" as="geometry" />
        </mxCell>
        <mxCell id="VTsSVl1GEHtE0EmgE6Nk-12" value="BearingFactory" style="swimlane;fontStyle=0;childLayout=stackLayout;horizontal=1;startSize=26;fillColor=none;horizontalStack=0;resizeParent=1;resizeParentMax=0;resizeLast=0;collapsible=1;marginBottom=0;" parent="WIyWlLk6GJQsqaUBKTNV-1" vertex="1">
          <mxGeometry x="720" y="668" width="300" height="52" as="geometry" />
        </mxCell>
        <mxCell id="VTsSVl1GEHtE0EmgE6Nk-13" value="+ createComponent()" style="text;strokeColor=none;fillColor=none;align=left;verticalAlign=top;spacingLeft=4;spacingRight=4;overflow=hidden;rotatable=0;points=[[0,0.5],[1,0.5]];portConstraint=eastwest;" parent="VTsSVl1GEHtE0EmgE6Nk-12" vertex="1">
          <mxGeometry y="26" width="300" height="26" as="geometry" />
        </mxCell>
        <mxCell id="VTsSVl1GEHtE0EmgE6Nk-17" value="Extends" style="endArrow=block;endSize=16;endFill=0;html=1;rounded=0;entryX=0;entryY=0.5;entryDx=0;entryDy=0;" parent="WIyWlLk6GJQsqaUBKTNV-1" target="VTsSVl1GEHtE0EmgE6Nk-0" edge="1">
          <mxGeometry x="0.2914" y="20" width="160" relative="1" as="geometry">
            <mxPoint x="480" y="668" as="sourcePoint" />
            <mxPoint x="640" y="668" as="targetPoint" />
            <Array as="points">
              <mxPoint x="480" y="610" />
            </Array>
            <mxPoint y="-1" as="offset" />
          </mxGeometry>
        </mxCell>
        <mxCell id="VTsSVl1GEHtE0EmgE6Nk-19" value="Extends" style="endArrow=block;endSize=16;endFill=0;html=1;rounded=0;entryX=-0.012;entryY=1.037;entryDx=0;entryDy=0;entryPerimeter=0;exitX=0.999;exitY=0.09;exitDx=0;exitDy=0;exitPerimeter=0;" parent="WIyWlLk6GJQsqaUBKTNV-1" source="KKLGuPh0WW9fZ8P-ubre-1" target="1sK50lc-n5-U59IMh-OA-63" edge="1">
          <mxGeometry x="0.2431" y="37" width="160" relative="1" as="geometry">
            <mxPoint x="850" y="830" as="sourcePoint" />
            <mxPoint x="1110" y="821" as="targetPoint" />
            <Array as="points">
              <mxPoint x="1010" y="810" />
            </Array>
            <mxPoint as="offset" />
          </mxGeometry>
        </mxCell>
        <mxCell id="VTsSVl1GEHtE0EmgE6Nk-20" value="Extends" style="endArrow=block;endSize=16;endFill=0;html=1;rounded=0;entryX=1;entryY=0.5;entryDx=0;entryDy=0;" parent="WIyWlLk6GJQsqaUBKTNV-1" target="1sK50lc-n5-U59IMh-OA-63" edge="1">
          <mxGeometry x="0.6" y="17" width="160" relative="1" as="geometry">
            <mxPoint x="1410" y="893.04" as="sourcePoint" />
            <mxPoint x="1666.4" y="820.002" as="targetPoint" />
            <Array as="points">
              <mxPoint x="1530" y="893.04" />
              <mxPoint x="1530" y="733" />
            </Array>
            <mxPoint as="offset" />
          </mxGeometry>
        </mxCell>
        <mxCell id="VTsSVl1GEHtE0EmgE6Nk-23" value="Extends" style="endArrow=block;endSize=16;endFill=0;html=1;rounded=0;entryX=0.989;entryY=0.028;entryDx=0;entryDy=0;entryPerimeter=0;" parent="WIyWlLk6GJQsqaUBKTNV-1" target="VTsSVl1GEHtE0EmgE6Nk-1" edge="1">
          <mxGeometry x="-0.0428" y="-12" width="160" relative="1" as="geometry">
            <mxPoint x="980" y="670" as="sourcePoint" />
            <mxPoint x="1070" y="667.09" as="targetPoint" />
            <Array as="points">
              <mxPoint x="980" y="612" />
            </Array>
            <mxPoint as="offset" />
          </mxGeometry>
        </mxCell>
        <mxCell id="VTsSVl1GEHtE0EmgE6Nk-25" value="Extends" style="endArrow=block;endSize=16;endFill=0;html=1;rounded=0;entryX=1.014;entryY=0.964;entryDx=0;entryDy=0;entryPerimeter=0;exitX=0.565;exitY=-0.054;exitDx=0;exitDy=0;exitPerimeter=0;" parent="WIyWlLk6GJQsqaUBKTNV-1" source="KKLGuPh0WW9fZ8P-ubre-15" target="KKLGuPh0WW9fZ8P-ubre-1" edge="1">
          <mxGeometry x="0.1926" y="-30" width="160" relative="1" as="geometry">
            <mxPoint x="860" y="909.09" as="sourcePoint" />
            <mxPoint x="1020" y="909.09" as="targetPoint" />
            <Array as="points">
              <mxPoint x="890" y="830" />
            </Array>
            <mxPoint as="offset" />
          </mxGeometry>
        </mxCell>
        <mxCell id="VTsSVl1GEHtE0EmgE6Nk-26" value="Extends" style="endArrow=block;endSize=16;endFill=0;html=1;rounded=0;entryX=-0.004;entryY=0.798;entryDx=0;entryDy=0;entryPerimeter=0;" parent="WIyWlLk6GJQsqaUBKTNV-1" target="KKLGuPh0WW9fZ8P-ubre-7" edge="1">
          <mxGeometry x="0.7299" y="20" width="160" relative="1" as="geometry">
            <mxPoint x="1050" y="1008.08" as="sourcePoint" />
            <mxPoint x="1100" y="910" as="targetPoint" />
            <Array as="points">
              <mxPoint x="1050" y="910" />
            </Array>
            <mxPoint as="offset" />
          </mxGeometry>
        </mxCell>
        <mxCell id="VTsSVl1GEHtE0EmgE6Nk-27" value="Extends" style="endArrow=block;endSize=16;endFill=0;html=1;rounded=0;entryX=1.007;entryY=0.06;entryDx=0;entryDy=0;entryPerimeter=0;exitX=0.565;exitY=-0.054;exitDx=0;exitDy=0;exitPerimeter=0;" parent="WIyWlLk6GJQsqaUBKTNV-1" target="KKLGuPh0WW9fZ8P-ubre-8" edge="1">
          <mxGeometry x="-0.1172" y="-35" width="160" relative="1" as="geometry">
            <mxPoint x="1515.2999999999995" y="1020.192" as="sourcePoint" />
            <mxPoint x="1479.9999999999998" y="944.0639999999999" as="targetPoint" />
            <Array as="points">
              <mxPoint x="1515" y="919" />
            </Array>
            <mxPoint as="offset" />
          </mxGeometry>
        </mxCell>
        <mxCell id="VTsSVl1GEHtE0EmgE6Nk-29" value="Use" style="endArrow=open;endSize=12;dashed=1;html=1;rounded=0;entryX=0;entryY=0.5;entryDx=0;entryDy=0;" parent="WIyWlLk6GJQsqaUBKTNV-1" target="KKLGuPh0WW9fZ8P-ubre-19" edge="1">
          <mxGeometry x="-0.1623" width="160" relative="1" as="geometry">
            <mxPoint x="370" y="702" as="sourcePoint" />
            <mxPoint x="710" y="950" as="targetPoint" />
            <Array as="points">
              <mxPoint x="260" y="702" />
              <mxPoint x="260" y="940" />
              <mxPoint x="260" y="1040" />
              <mxPoint x="680" y="1040" />
              <mxPoint x="690" y="1040" />
              <mxPoint x="690" y="950" />
            </Array>
            <mxPoint as="offset" />
          </mxGeometry>
        </mxCell>
        <mxCell id="VTsSVl1GEHtE0EmgE6Nk-31" value="Use" style="endArrow=open;endSize=12;dashed=1;html=1;rounded=0;exitX=1;exitY=0;exitDx=0;exitDy=0;" parent="WIyWlLk6GJQsqaUBKTNV-1" source="VTsSVl1GEHtE0EmgE6Nk-12" edge="1">
          <mxGeometry width="160" relative="1" as="geometry">
            <mxPoint x="1020" y="694" as="sourcePoint" />
            <mxPoint x="1500" y="1100" as="targetPoint" />
            <Array as="points">
              <mxPoint x="1020" y="610" />
              <mxPoint x="1660" y="610" />
              <mxPoint x="1660" y="1130" />
              <mxPoint x="1500" y="1130" />
            </Array>
          </mxGeometry>
        </mxCell>
        <mxCell id="VTsSVl1GEHtE0EmgE6Nk-32" value="Use" style="endArrow=open;endSize=12;dashed=1;html=1;rounded=0;exitX=1;exitY=0;exitDx=0;exitDy=0;entryX=0.561;entryY=1.214;entryDx=0;entryDy=0;entryPerimeter=0;" parent="WIyWlLk6GJQsqaUBKTNV-1" target="KKLGuPh0WW9fZ8P-ubre-27" edge="1">
          <mxGeometry width="160" relative="1" as="geometry">
            <mxPoint x="999.9999999999995" y="668" as="sourcePoint" />
            <mxPoint x="1480" y="1100.0000000000002" as="targetPoint" />
            <Array as="points">
              <mxPoint x="1000" y="610" />
              <mxPoint x="1640" y="610" />
              <mxPoint x="1640" y="1170" />
              <mxPoint x="1129" y="1170" />
            </Array>
          </mxGeometry>
        </mxCell>
        <mxCell id="0YvunHFRLQw8kQD-Iq0t-0" value="LakeExtraction" style="swimlane;fontStyle=0;childLayout=stackLayout;horizontal=1;startSize=26;fillColor=none;horizontalStack=0;resizeParent=1;resizeParentMax=0;resizeLast=0;collapsible=1;marginBottom=0;" parent="WIyWlLk6GJQsqaUBKTNV-1" vertex="1">
          <mxGeometry x="230" y="460" width="300" height="78" as="geometry" />
        </mxCell>
        <mxCell id="0YvunHFRLQw8kQD-Iq0t-1" value="loginToLake()" style="text;strokeColor=none;fillColor=none;align=left;verticalAlign=top;spacingLeft=4;spacingRight=4;overflow=hidden;rotatable=0;points=[[0,0.5],[1,0.5]];portConstraint=eastwest;" parent="0YvunHFRLQw8kQD-Iq0t-0" vertex="1">
          <mxGeometry y="26" width="300" height="26" as="geometry" />
        </mxCell>
        <mxCell id="0YvunHFRLQw8kQD-Iq0t-2" value="extractLakeParameters()" style="text;strokeColor=none;fillColor=none;align=left;verticalAlign=top;spacingLeft=4;spacingRight=4;overflow=hidden;rotatable=0;points=[[0,0.5],[1,0.5]];portConstraint=eastwest;" parent="0YvunHFRLQw8kQD-Iq0t-0" vertex="1">
          <mxGeometry y="52" width="300" height="26" as="geometry" />
        </mxCell>
        <mxCell id="0YvunHFRLQw8kQD-Iq0t-9" value="InternalDataWarehouse" style="swimlane;fontStyle=0;childLayout=stackLayout;horizontal=1;startSize=26;fillColor=none;horizontalStack=0;resizeParent=1;resizeParentMax=0;resizeLast=0;collapsible=1;marginBottom=0;" parent="WIyWlLk6GJQsqaUBKTNV-1" vertex="1">
          <mxGeometry x="1280.5" y="390" width="300" height="182" as="geometry" />
        </mxCell>
        <mxCell id="0YvunHFRLQw8kQD-Iq0t-11" value="- consolidatedData" style="text;strokeColor=none;fillColor=none;align=left;verticalAlign=top;spacingLeft=4;spacingRight=4;overflow=hidden;rotatable=0;points=[[0,0.5],[1,0.5]];portConstraint=eastwest;" parent="0YvunHFRLQw8kQD-Iq0t-9" vertex="1">
          <mxGeometry y="26" width="300" height="26" as="geometry" />
        </mxCell>
        <mxCell id="0YvunHFRLQw8kQD-Iq0t-16" value="+ getDataset()" style="text;strokeColor=none;fillColor=none;align=left;verticalAlign=top;spacingLeft=4;spacingRight=4;overflow=hidden;rotatable=0;points=[[0,0.5],[1,0.5]];portConstraint=eastwest;" parent="0YvunHFRLQw8kQD-Iq0t-9" vertex="1">
          <mxGeometry y="52" width="300" height="26" as="geometry" />
        </mxCell>
        <mxCell id="0YvunHFRLQw8kQD-Iq0t-14" value="+ appendRow()" style="text;strokeColor=none;fillColor=none;align=left;verticalAlign=top;spacingLeft=4;spacingRight=4;overflow=hidden;rotatable=0;points=[[0,0.5],[1,0.5]];portConstraint=eastwest;" parent="0YvunHFRLQw8kQD-Iq0t-9" vertex="1">
          <mxGeometry y="78" width="300" height="26" as="geometry" />
        </mxCell>
        <mxCell id="0YvunHFRLQw8kQD-Iq0t-13" value="+ clearDataset()" style="text;strokeColor=none;fillColor=none;align=left;verticalAlign=top;spacingLeft=4;spacingRight=4;overflow=hidden;rotatable=0;points=[[0,0.5],[1,0.5]];portConstraint=eastwest;" parent="0YvunHFRLQw8kQD-Iq0t-9" vertex="1">
          <mxGeometry y="104" width="300" height="26" as="geometry" />
        </mxCell>
        <mxCell id="0YvunHFRLQw8kQD-Iq0t-18" value="+ assignNewDataset()" style="text;strokeColor=none;fillColor=none;align=left;verticalAlign=top;spacingLeft=4;spacingRight=4;overflow=hidden;rotatable=0;points=[[0,0.5],[1,0.5]];portConstraint=eastwest;" parent="0YvunHFRLQw8kQD-Iq0t-9" vertex="1">
          <mxGeometry y="130" width="300" height="26" as="geometry" />
        </mxCell>
        <mxCell id="0YvunHFRLQw8kQD-Iq0t-17" value="+ mergeCostAndEngData()" style="text;strokeColor=none;fillColor=none;align=left;verticalAlign=top;spacingLeft=4;spacingRight=4;overflow=hidden;rotatable=0;points=[[0,0.5],[1,0.5]];portConstraint=eastwest;" parent="0YvunHFRLQw8kQD-Iq0t-9" vertex="1">
          <mxGeometry y="156" width="300" height="26" as="geometry" />
        </mxCell>
        <mxCell id="0YvunHFRLQw8kQD-Iq0t-19" value="DatabaseOperations" style="swimlane;fontStyle=0;childLayout=stackLayout;horizontal=1;startSize=26;fillColor=none;horizontalStack=0;resizeParent=1;resizeParentMax=0;resizeLast=0;collapsible=1;marginBottom=0;" parent="WIyWlLk6GJQsqaUBKTNV-1" vertex="1">
          <mxGeometry x="1410" y="90" width="300" height="244" as="geometry" />
        </mxCell>
        <mxCell id="0YvunHFRLQw8kQD-Iq0t-20" value="+ addNewRowExisting()" style="text;strokeColor=none;fillColor=none;align=left;verticalAlign=top;spacingLeft=4;spacingRight=4;overflow=hidden;rotatable=0;points=[[0,0.5],[1,0.5]];portConstraint=eastwest;" parent="0YvunHFRLQw8kQD-Iq0t-19" vertex="1">
          <mxGeometry y="26" width="300" height="26" as="geometry" />
        </mxCell>
        <mxCell id="0YvunHFRLQw8kQD-Iq0t-21" value="+ addNewType()" style="text;strokeColor=none;fillColor=none;align=left;verticalAlign=top;spacingLeft=4;spacingRight=4;overflow=hidden;rotatable=0;points=[[0,0.5],[1,0.5]];portConstraint=eastwest;" parent="0YvunHFRLQw8kQD-Iq0t-19" vertex="1">
          <mxGeometry y="52" width="300" height="26" as="geometry" />
        </mxCell>
        <mxCell id="0YvunHFRLQw8kQD-Iq0t-22" value="+ removeRowExisting()" style="text;strokeColor=none;fillColor=none;align=left;verticalAlign=top;spacingLeft=4;spacingRight=4;overflow=hidden;rotatable=0;points=[[0,0.5],[1,0.5]];portConstraint=eastwest;" parent="0YvunHFRLQw8kQD-Iq0t-19" vertex="1">
          <mxGeometry y="78" width="300" height="26" as="geometry" />
        </mxCell>
        <mxCell id="0YvunHFRLQw8kQD-Iq0t-23" value="+ removeType()" style="text;strokeColor=none;fillColor=none;align=left;verticalAlign=top;spacingLeft=4;spacingRight=4;overflow=hidden;rotatable=0;points=[[0,0.5],[1,0.5]];portConstraint=eastwest;" parent="0YvunHFRLQw8kQD-Iq0t-19" vertex="1">
          <mxGeometry y="104" width="300" height="26" as="geometry" />
        </mxCell>
        <mxCell id="0YvunHFRLQw8kQD-Iq0t-24" value="+ updateRowExisting()" style="text;strokeColor=none;fillColor=none;align=left;verticalAlign=top;spacingLeft=4;spacingRight=4;overflow=hidden;rotatable=0;points=[[0,0.5],[1,0.5]];portConstraint=eastwest;" parent="0YvunHFRLQw8kQD-Iq0t-19" vertex="1">
          <mxGeometry y="130" width="300" height="26" as="geometry" />
        </mxCell>
        <mxCell id="0YvunHFRLQw8kQD-Iq0t-25" value="+ populateNewType()" style="text;strokeColor=none;fillColor=none;align=left;verticalAlign=top;spacingLeft=4;spacingRight=4;overflow=hidden;rotatable=0;points=[[0,0.5],[1,0.5]];portConstraint=eastwest;" parent="0YvunHFRLQw8kQD-Iq0t-19" vertex="1">
          <mxGeometry y="156" width="300" height="26" as="geometry" />
        </mxCell>
        <mxCell id="0YvunHFRLQw8kQD-Iq0t-26" value="+ readRowExistingType()" style="text;strokeColor=none;fillColor=none;align=left;verticalAlign=top;spacingLeft=4;spacingRight=4;overflow=hidden;rotatable=0;points=[[0,0.5],[1,0.5]];portConstraint=eastwest;" parent="0YvunHFRLQw8kQD-Iq0t-19" vertex="1">
          <mxGeometry y="182" width="300" height="26" as="geometry" />
        </mxCell>
        <mxCell id="0YvunHFRLQw8kQD-Iq0t-27" value="+ readEntireType()" style="text;strokeColor=none;fillColor=none;align=left;verticalAlign=top;spacingLeft=4;spacingRight=4;overflow=hidden;rotatable=0;points=[[0,0.5],[1,0.5]];portConstraint=eastwest;" parent="0YvunHFRLQw8kQD-Iq0t-19" vertex="1">
          <mxGeometry y="208" width="300" height="36" as="geometry" />
        </mxCell>
      </root>
    </mxGraphModel>
  </diagram>
  <diagram id="prYKnfL8dOXzF4PO591m" name="Page-2">
    <mxGraphModel dx="1102" dy="855" grid="0" gridSize="10" guides="1" tooltips="1" connect="1" arrows="1" fold="1" page="1" pageScale="1" pageWidth="850" pageHeight="1100" math="0" shadow="0">
      <root>
        <mxCell id="0" />
        <mxCell id="1" parent="0" />
        <mxCell id="pq7xZ7QSsAex1oTRtWuu-23" value="" style="group" parent="1" vertex="1" connectable="0">
          <mxGeometry x="149" y="22" width="615" height="436" as="geometry" />
        </mxCell>
        <mxCell id="pq7xZ7QSsAex1oTRtWuu-12" value="" style="group" parent="pq7xZ7QSsAex1oTRtWuu-23" vertex="1" connectable="0">
          <mxGeometry y="96" width="615" height="340" as="geometry" />
        </mxCell>
        <mxCell id="pq7xZ7QSsAex1oTRtWuu-1" value="&lt;b&gt;&lt;font style=&quot;font-size: 16px;&quot;&gt;Windchill&lt;/font&gt;&lt;/b&gt;" style="rounded=1;whiteSpace=wrap;html=1;fillColor=#dae8fc;strokeColor=#6c8ebf;" parent="pq7xZ7QSsAex1oTRtWuu-12" vertex="1">
          <mxGeometry x="60" width="120" height="60" as="geometry" />
        </mxCell>
        <mxCell id="pq7xZ7QSsAex1oTRtWuu-2" value="&lt;b&gt;&lt;font style=&quot;font-size: 16px;&quot;&gt;DataLake&lt;/font&gt;&lt;/b&gt;" style="rounded=1;whiteSpace=wrap;html=1;fillColor=#dae8fc;strokeColor=#6c8ebf;" parent="pq7xZ7QSsAex1oTRtWuu-12" vertex="1">
          <mxGeometry x="280" width="120" height="60" as="geometry" />
        </mxCell>
        <mxCell id="pq7xZ7QSsAex1oTRtWuu-3" value="&lt;font style=&quot;font-size: 16px;&quot;&gt;&lt;b&gt;Derivative Tool&lt;/b&gt;&lt;/font&gt;" style="rounded=1;whiteSpace=wrap;html=1;fillColor=#d5e8d4;strokeColor=#82b366;" parent="pq7xZ7QSsAex1oTRtWuu-12" vertex="1">
          <mxGeometry x="160" y="140" width="129" height="60" as="geometry" />
        </mxCell>
        <mxCell id="pq7xZ7QSsAex1oTRtWuu-4" value="&lt;b&gt;&lt;font style=&quot;font-size: 16px;&quot;&gt;Database&lt;/font&gt;&lt;/b&gt;" style="rounded=1;whiteSpace=wrap;html=1;fillColor=#d5e8d4;strokeColor=#82b366;" parent="pq7xZ7QSsAex1oTRtWuu-12" vertex="1">
          <mxGeometry x="160" y="280" width="120" height="60" as="geometry" />
        </mxCell>
        <mxCell id="pq7xZ7QSsAex1oTRtWuu-5" value="&lt;b&gt;&lt;font style=&quot;font-size: 16px;&quot;&gt;Spotfire Visualisation&lt;/font&gt;&lt;/b&gt;" style="rounded=1;whiteSpace=wrap;html=1;fillColor=#dae8fc;strokeColor=#6c8ebf;" parent="pq7xZ7QSsAex1oTRtWuu-12" vertex="1">
          <mxGeometry x="353" y="200" width="175" height="60" as="geometry" />
        </mxCell>
        <mxCell id="pq7xZ7QSsAex1oTRtWuu-7" value="" style="endArrow=classic;html=1;rounded=0;entryX=0;entryY=0.5;entryDx=0;entryDy=0;exitX=0;exitY=0.5;exitDx=0;exitDy=0;" parent="pq7xZ7QSsAex1oTRtWuu-12" source="pq7xZ7QSsAex1oTRtWuu-1" target="pq7xZ7QSsAex1oTRtWuu-3" edge="1">
          <mxGeometry width="50" height="50" relative="1" as="geometry">
            <mxPoint x="30" y="30" as="sourcePoint" />
            <mxPoint x="110" y="-20" as="targetPoint" />
            <Array as="points">
              <mxPoint y="30" />
              <mxPoint y="170" />
            </Array>
          </mxGeometry>
        </mxCell>
        <mxCell id="pq7xZ7QSsAex1oTRtWuu-8" value="" style="endArrow=classic;html=1;rounded=0;entryX=1;entryY=0.5;entryDx=0;entryDy=0;exitX=1;exitY=0.5;exitDx=0;exitDy=0;" parent="pq7xZ7QSsAex1oTRtWuu-12" source="pq7xZ7QSsAex1oTRtWuu-2" target="pq7xZ7QSsAex1oTRtWuu-3" edge="1">
          <mxGeometry width="50" height="50" relative="1" as="geometry">
            <mxPoint x="400" y="40" as="sourcePoint" />
            <mxPoint x="450" y="-10" as="targetPoint" />
            <Array as="points">
              <mxPoint x="440" y="30" />
              <mxPoint x="440" y="170" />
            </Array>
          </mxGeometry>
        </mxCell>
        <mxCell id="pq7xZ7QSsAex1oTRtWuu-10" value="" style="endArrow=classic;startArrow=classic;html=1;rounded=0;" parent="pq7xZ7QSsAex1oTRtWuu-12" source="pq7xZ7QSsAex1oTRtWuu-4" edge="1">
          <mxGeometry width="50" height="50" relative="1" as="geometry">
            <mxPoint x="180" y="250" as="sourcePoint" />
            <mxPoint x="220" y="198" as="targetPoint" />
          </mxGeometry>
        </mxCell>
        <mxCell id="pq7xZ7QSsAex1oTRtWuu-11" value="" style="endArrow=classic;html=1;rounded=0;exitX=1;exitY=0.5;exitDx=0;exitDy=0;" parent="pq7xZ7QSsAex1oTRtWuu-12" source="pq7xZ7QSsAex1oTRtWuu-4" edge="1">
          <mxGeometry width="50" height="50" relative="1" as="geometry">
            <mxPoint x="280" y="320" as="sourcePoint" />
            <mxPoint x="447" y="259" as="targetPoint" />
            <Array as="points">
              <mxPoint x="447" y="310" />
            </Array>
          </mxGeometry>
        </mxCell>
        <mxCell id="pq7xZ7QSsAex1oTRtWuu-22" value="Hosted" style="rounded=1;whiteSpace=wrap;html=1;fontSize=16;fillColor=#dae8fc;strokeColor=#6c8ebf;" parent="pq7xZ7QSsAex1oTRtWuu-12" vertex="1">
          <mxGeometry x="491" y="2" width="120" height="24" as="geometry" />
        </mxCell>
        <mxCell id="pq7xZ7QSsAex1oTRtWuu-18" value="&lt;span style=&quot;font-size: 16px;&quot;&gt;&lt;b&gt;CSV File&lt;/b&gt;&lt;/span&gt;" style="rounded=1;whiteSpace=wrap;html=1;fillColor=#d5e8d4;strokeColor=#82b366;" parent="pq7xZ7QSsAex1oTRtWuu-23" vertex="1">
          <mxGeometry x="170" width="120" height="60" as="geometry" />
        </mxCell>
        <mxCell id="pq7xZ7QSsAex1oTRtWuu-19" value="" style="endArrow=classic;html=1;rounded=0;fontSize=16;" parent="pq7xZ7QSsAex1oTRtWuu-23" edge="1">
          <mxGeometry width="50" height="50" relative="1" as="geometry">
            <mxPoint x="229" y="60" as="sourcePoint" />
            <mxPoint x="229" y="235" as="targetPoint" />
          </mxGeometry>
        </mxCell>
        <mxCell id="pq7xZ7QSsAex1oTRtWuu-21" value="Local PC" style="rounded=1;whiteSpace=wrap;html=1;fontSize=16;fillColor=#d5e8d4;strokeColor=#82b366;" parent="pq7xZ7QSsAex1oTRtWuu-23" vertex="1">
          <mxGeometry x="490" y="64" width="120" height="25" as="geometry" />
        </mxCell>
        <mxCell id="pq7xZ7QSsAex1oTRtWuu-24" value="Legend" style="text;html=1;strokeColor=none;fillColor=none;align=center;verticalAlign=middle;whiteSpace=wrap;rounded=0;fontSize=16;" parent="pq7xZ7QSsAex1oTRtWuu-23" vertex="1">
          <mxGeometry x="520" y="23" width="60" height="30" as="geometry" />
        </mxCell>
        <mxCell id="UTQep9PxveqgeleXDsu8-1" value="&lt;font style=&quot;font-size: 16px;&quot;&gt;&lt;b&gt;Simple Method&lt;/b&gt;&lt;/font&gt;" style="rounded=1;whiteSpace=wrap;html=1;fillColor=#d5e8d4;strokeColor=#82b366;" vertex="1" parent="1">
          <mxGeometry x="79" y="596" width="128" height="60" as="geometry" />
        </mxCell>
        <mxCell id="UTQep9PxveqgeleXDsu8-2" value="&lt;font style=&quot;font-size: 16px;&quot;&gt;&lt;b&gt;Complex Method&lt;/b&gt;&lt;/font&gt;" style="rounded=1;whiteSpace=wrap;html=1;fillColor=#d5e8d4;strokeColor=#82b366;" vertex="1" parent="1">
          <mxGeometry x="336.5" y="596" width="141.5" height="60" as="geometry" />
        </mxCell>
        <mxCell id="UTQep9PxveqgeleXDsu8-3" value="&lt;font style=&quot;font-size: 16px;&quot;&gt;&lt;b&gt;Average Accuracy&lt;/b&gt;&lt;/font&gt;" style="rounded=1;whiteSpace=wrap;html=1;fillColor=#f8cecc;strokeColor=#b85450;" vertex="1" parent="1">
          <mxGeometry x="198" y="790" width="158" height="60" as="geometry" />
        </mxCell>
        <mxCell id="UTQep9PxveqgeleXDsu8-6" value="&lt;b style=&quot;font-size: 16px;&quot;&gt;Random Forest&amp;nbsp;&lt;br&gt;Decision Tree Combination&amp;nbsp;&lt;/b&gt;" style="rounded=1;whiteSpace=wrap;html=1;fillColor=#d5e8d4;strokeColor=#82b366;" vertex="1" parent="1">
          <mxGeometry x="310" y="689" width="230" height="60" as="geometry" />
        </mxCell>
        <mxCell id="UTQep9PxveqgeleXDsu8-7" value="&lt;b style=&quot;font-size: 16px;&quot;&gt;R Squared&amp;nbsp;&lt;br&gt;Derivative Curve Best Fit&lt;/b&gt;" style="rounded=1;whiteSpace=wrap;html=1;fillColor=#d5e8d4;strokeColor=#82b366;" vertex="1" parent="1">
          <mxGeometry x="41" y="692" width="209" height="60" as="geometry" />
        </mxCell>
        <mxCell id="UTQep9PxveqgeleXDsu8-11" value="&lt;span style=&quot;font-size: 16px;&quot;&gt;&lt;b&gt;Commodity Data&lt;/b&gt;&lt;/span&gt;" style="rounded=1;whiteSpace=wrap;html=1;fillColor=#ffe6cc;strokeColor=#d79b00;" vertex="1" parent="1">
          <mxGeometry x="200" y="516" width="151" height="60" as="geometry" />
        </mxCell>
        <mxCell id="UTQep9PxveqgeleXDsu8-21" value="" style="endArrow=classic;html=1;rounded=0;fontFamily=Helvetica;fontSize=16;entryX=0.592;entryY=-0.025;entryDx=0;entryDy=0;entryPerimeter=0;" edge="1" parent="1" target="UTQep9PxveqgeleXDsu8-2">
          <mxGeometry width="50" height="50" relative="1" as="geometry">
            <mxPoint x="352" y="550" as="sourcePoint" />
            <mxPoint x="382" y="500" as="targetPoint" />
            <Array as="points">
              <mxPoint x="420" y="550" />
            </Array>
          </mxGeometry>
        </mxCell>
        <mxCell id="UTQep9PxveqgeleXDsu8-23" value="" style="endArrow=classic;html=1;rounded=0;fontFamily=Helvetica;fontSize=16;" edge="1" parent="1">
          <mxGeometry width="50" height="50" relative="1" as="geometry">
            <mxPoint x="195" y="550" as="sourcePoint" />
            <mxPoint x="132" y="598" as="targetPoint" />
            <Array as="points">
              <mxPoint x="132" y="550" />
            </Array>
          </mxGeometry>
        </mxCell>
        <mxCell id="UTQep9PxveqgeleXDsu8-24" value="" style="endArrow=classic;html=1;rounded=0;fontFamily=Helvetica;fontSize=16;entryX=0.465;entryY=0.05;entryDx=0;entryDy=0;entryPerimeter=0;" edge="1" parent="1" target="UTQep9PxveqgeleXDsu8-6">
          <mxGeometry width="50" height="50" relative="1" as="geometry">
            <mxPoint x="417" y="656" as="sourcePoint" />
            <mxPoint x="467" y="606" as="targetPoint" />
          </mxGeometry>
        </mxCell>
        <mxCell id="UTQep9PxveqgeleXDsu8-25" value="" style="endArrow=classic;html=1;rounded=0;fontFamily=Helvetica;fontSize=16;entryX=0.465;entryY=0.05;entryDx=0;entryDy=0;entryPerimeter=0;" edge="1" parent="1">
          <mxGeometry width="50" height="50" relative="1" as="geometry">
            <mxPoint x="132.05" y="656" as="sourcePoint" />
            <mxPoint x="132.00000000000006" y="692" as="targetPoint" />
          </mxGeometry>
        </mxCell>
        <mxCell id="UTQep9PxveqgeleXDsu8-26" value="" style="endArrow=classic;html=1;rounded=0;fontFamily=Helvetica;fontSize=16;" edge="1" parent="1">
          <mxGeometry width="50" height="50" relative="1" as="geometry">
            <mxPoint x="419" y="752" as="sourcePoint" />
            <mxPoint x="353" y="820" as="targetPoint" />
            <Array as="points">
              <mxPoint x="419" y="820" />
            </Array>
          </mxGeometry>
        </mxCell>
        <mxCell id="UTQep9PxveqgeleXDsu8-28" value="" style="endArrow=classic;html=1;rounded=0;fontFamily=Helvetica;fontSize=16;entryX=0;entryY=0.533;entryDx=0;entryDy=0;entryPerimeter=0;" edge="1" parent="1" target="UTQep9PxveqgeleXDsu8-3">
          <mxGeometry width="50" height="50" relative="1" as="geometry">
            <mxPoint x="130" y="754" as="sourcePoint" />
            <mxPoint x="180" y="704" as="targetPoint" />
            <Array as="points">
              <mxPoint x="130" y="822" />
            </Array>
          </mxGeometry>
        </mxCell>
        <mxCell id="UTQep9PxveqgeleXDsu8-45" value="" style="group" vertex="1" connectable="0" parent="1">
          <mxGeometry x="553" y="567" width="120" height="94" as="geometry" />
        </mxCell>
        <mxCell id="UTQep9PxveqgeleXDsu8-42" value="Method" style="rounded=1;whiteSpace=wrap;html=1;fontSize=16;fillColor=#d5e8d4;strokeColor=#82b366;" vertex="1" parent="UTQep9PxveqgeleXDsu8-45">
          <mxGeometry y="35" width="120" height="25" as="geometry" />
        </mxCell>
        <mxCell id="UTQep9PxveqgeleXDsu8-43" value="Output" style="rounded=1;whiteSpace=wrap;html=1;fontSize=16;fillColor=#f8cecc;strokeColor=#b85450;" vertex="1" parent="UTQep9PxveqgeleXDsu8-45">
          <mxGeometry y="69" width="120" height="25" as="geometry" />
        </mxCell>
        <mxCell id="UTQep9PxveqgeleXDsu8-44" value="Input" style="rounded=1;whiteSpace=wrap;html=1;fontSize=16;fillColor=#ffe6cc;strokeColor=#d79b00;" vertex="1" parent="UTQep9PxveqgeleXDsu8-45">
          <mxGeometry width="120" height="25" as="geometry" />
        </mxCell>
        <mxCell id="UTQep9PxveqgeleXDsu8-47" value="Legend" style="text;html=1;strokeColor=none;fillColor=none;align=center;verticalAlign=middle;whiteSpace=wrap;rounded=0;fontSize=16;" vertex="1" parent="1">
          <mxGeometry x="583" y="528" width="60" height="30" as="geometry" />
        </mxCell>
      </root>
    </mxGraphModel>
  </diagram>
</mxfile>
